<svg xmlns="http://www.w3.org/2000/svg" data-encore-id="icon" role="img" aria-hidden="true" class="e-91000-icon e-91000-baseline" viewBox="0 0 24 24" style="--encore-icon-height: var(--encore-graphic-size-decorative-larger); --encore-icon-width: var(--encore-graphic-size-decorative-larger);"><path d="M11.999 3a9 9 0 1 0 0 18 9 9 0 0 0 0-18m-11 9c0-6.075 4.925-11 11-11s11 4.925 11 11-4.925 11-11 11-11-4.925-11-11"/><path d="M17.999 12a1 1 0 0 1-1 1h-4v4a1 1 0 1 1-2 0v-4h-4a1 1 0 1 1 0-2h4V7a1 1 0 1 1 2 0v4h4a1 1 0 0 1 1 1"/></svg>