<svg xmlns="http://www.w3.org/2000/svg" data-encore-id="icon" role="img" aria-hidden="true" class="e-91000-icon e-91000-baseline" viewBox="0 0 16 16" style="--encore-icon-height: var(--encore-graphic-size-decorative-smaller); --encore-icon-width: var(--encore-graphic-size-decorative-smaller);"><path d="M11.196 8 6 5v6z"/><path d="M15.002 1.75A1.75 1.75 0 0 0 13.252 0h-10.5a1.75 1.75 0 0 0-1.75 1.75v12.5c0 .966.783 1.75 1.75 1.75h10.5a1.75 1.75 0 0 0 1.75-1.75zm-1.75-.25a.25.25 0 0 1 .25.25v12.5a.25.25 0 0 1-.25.25h-10.5a.25.25 0 0 1-.25-.25V1.75a.25.25 0 0 1 .25-.25z"/></svg>