<svg xmlns="http://www.w3.org/2000/svg" data-encore-id="icon" role="img" aria-hidden="true" class="e-91000-icon e-91000-baseline" viewBox="0 0 16 16" style="--encore-icon-fill: var(--text-base, #000000); --encore-icon-height: var(--encore-graphic-size-decorative-smaller); --encore-icon-width: var(--encore-graphic-size-decorative-smaller);"><path d="M13.54 3.889a2.97 2.97 0 0 0 1.333-1.683 6 6 0 0 1-1.929.738 3 3 0 0 0-.996-.706 3 3 0 0 0-1.218-.254 2.92 2.92 0 0 0-2.143.889 2.93 2.93 0 0 0-.889 2.15q0 .318.08.691a8.5 8.5 0 0 1-3.484-.932A8.5 8.5 0 0 1 1.532 2.54a3 3 0 0 0-.413 1.523q0 .778.361 1.445.36.668.988 1.08a2.9 2.9 0 0 1-1.373-.374v.04q0 1.088.69 1.92a2.97 2.97 0 0 0 1.739 1.048 2.94 2.94 0 0 1-1.365.056 2.94 2.94 0 0 0 1.063 1.5 2.95 2.95 0 0 0 1.77.603 5.94 5.94 0 0 1-3.77 1.302q-.365 0-.722-.048A8.4 8.4 0 0 0 5.15 14q1.358 0 2.572-.361 1.215-.36 2.147-.988a9 9 0 0 0 1.683-1.46q.75-.834 1.234-1.798a9.5 9.5 0 0 0 .738-1.988 8.4 8.4 0 0 0 .246-2.429 6.2 6.2 0 0 0 1.508-1.563q-.84.373-1.738.476"/></svg>